<svg xmlns="http://www.w3.org/2000/svg" xmlns:xlink="http://www.w3.org/1999/xlink" viewBox="0 0 666.14 200.4"><defs><style>.cls-1{fill:none;}.cls-2{clip-path:url(#clip-path);}.cls-3{fill:#029dd9;}.cls-4{clip-path:url(#clip-path-2);}.cls-5{fill:#1d1d1b;}</style><clipPath id="clip-path" transform="translate(0 0)"><rect class="cls-1" width="666.14" height="200.39"/></clipPath><clipPath id="clip-path-2" transform="translate(0 0)"><rect class="cls-1" width="666.14" height="200.39"/></clipPath></defs><title>Artwork 1</title><g id="Layer_2" data-name="Layer 2"><g id="Layer_1-2" data-name="Layer 1"><g id="Artwork_1" data-name="Artwork 1"><g class="cls-2"><polygon class="cls-3" points="103.9 154.94 73.16 145.69 73.16 14.46 103.9 27.29 103.9 154.94"/><g class="cls-4"><path class="cls-3" d="M179.46,95.07H138.05V0L107.31,26.65v96.28q-.84.06-1.71.06A26.36,26.36,0,0,1,79.27,96.66c0-.53,0-1.07,0-1.59H31.75c0,.53,0,1.06,0,1.59a73.88,73.88,0,1,0,147.75,0c0-.53,0-1.06,0-1.59m-29.57,3.18h11.58a55.88,55.88,0,0,1-23.42,43.89V126.85a44.17,44.17,0,0,0,11.84-28.6m-3.22,0a40.83,40.83,0,0,1-8.62,23.62V98.25Zm-70.57,0a29.54,29.54,0,0,0,29.5,28c.58,0,1.15,0,1.71,0v11.57c-.56,0-1.13,0-1.71,0A41.16,41.16,0,0,1,64.53,98.25Zm-14.78,0A44.32,44.32,0,0,0,105.6,141c.58,0,1.15,0,1.71,0v11.57q-.84,0-1.71,0a56,56,0,0,1-55.86-54.3Zm44.28,69.07A70.75,70.75,0,0,1,35,98.25H46.52a59.11,59.11,0,0,0,118.17,0h11.56a70.75,70.75,0,0,1-70.65,69.07" transform="translate(0 0)"/><path class="cls-3" d="M167.42,184.5a27.43,27.43,0,0,1-18,2.13,62.18,62.18,0,0,1-12-4.06l-8.53-3.49A41.62,41.62,0,0,0,106,178.5h-.77a38.36,38.36,0,0,0-22.87.58c-2.9,1-5.62,2.32-8.52,3.49a68.83,68.83,0,0,1-12,4.26,27.69,27.69,0,0,1-18-2.13l-.77-.39c-.2,0-.2,0-.2.19a29.4,29.4,0,0,0,13.57,7.95,28.32,28.32,0,0,0,10.66.77,35.15,35.15,0,0,0,15.11-5.81L90.29,182a13.82,13.82,0,0,1,10.27-1.93c1.94.19.39,1.16.19,1.35A77.89,77.89,0,0,0,87,189.93c-2.9,2.13-8.13,7.17-8.13,7.17l3.87,3.3L87,195.74A77.46,77.46,0,0,1,104.82,182a1.49,1.49,0,0,1,1.75,0,77.2,77.2,0,0,1,17.82,13.76l4.27,4.66,3.87-3.3-8.14-7.17a77.44,77.44,0,0,0-13.75-8.53c-.39-.19-1.75-1.16.19-1.35A13.82,13.82,0,0,1,121.1,182l8.14,5.43a35.14,35.14,0,0,0,15.12,5.81,28.27,28.27,0,0,0,10.65-.77,33.19,33.19,0,0,0,13.57-7.95.71.71,0,0,0-.39-.19l-.77.19m19-16.86a27.39,27.39,0,0,1-8.14,4.27,47.68,47.68,0,0,1-12.79,1.94,161.39,161.39,0,0,0-16.67,1.35c-.38,0-.58,0-.38-.19a20.46,20.46,0,0,0,10.84-10.46l5.43-11.05v-.39c-.39.19-5.81,4.85-8.33,7.17l-9.11,8.92a35.51,35.51,0,0,1-14.14,7.36h-.2l-.19.19,10.46,2.52A66.18,66.18,0,0,0,157,181.79a32.28,32.28,0,0,0,29.84-13.95c0-.2-.19-.2-.38-.2m17.05-26a41,41,0,0,1-9.69,8.52,61.41,61.41,0,0,1-9.88,5.43,48.16,48.16,0,0,0-12.21,7.17l-.78.58c-.19,0-.19,0-.19-.19s5.81-6,7.56-18.22a71.83,71.83,0,0,1,1.94-13v-.39a56.49,56.49,0,0,0-9.31,16.67l-3.48,9.88A28.65,28.65,0,0,1,160.25,170l-.39.39v.19c.39,0,.77-.19,1.16-.19L172.26,168a39.12,39.12,0,0,0,17.05-7.17,39.67,39.67,0,0,0,12.21-14.34,35.4,35.4,0,0,0,1.94-4.84c.39-.19.19-.19,0,0m7.36-29.07a34.38,34.38,0,0,1-8.91,14,129.21,129.21,0,0,0-12.79,14.54c0,.19-.39,0-.19-.2a39.24,39.24,0,0,0,1.16-16.47c-.78-4.65-2.72-9.69-3.3-15.31l-.19-.19c0,.19-.19.38-.19.58a54.89,54.89,0,0,0-2.33,11.24c-.19,4.65.58,10.66.19,15.31-.38,5.43-.77,11-3.29,15.89v.38l11.63-7.17a43.62,43.62,0,0,0,12.21-11.62,34.75,34.75,0,0,0,6.39-20.35v-.77a.71.71,0,0,0-.39.19" transform="translate(0 0)"/><path class="cls-3" d="M198.42,115.71h0a38.06,38.06,0,0,0-.19-4.65c-.39-5.43-3.69-9.88-6.59-14.53a72.21,72.21,0,0,1-5.23-9.3A.7.7,0,0,0,186,87a20.46,20.46,0,0,0,.19,3.1A94.42,94.42,0,0,0,192,113,33.07,33.07,0,0,1,194,127.34c0,.39,0,.39.2.58,1.74-2.52,5.23-6,7.36-8.72s13.76-15.89,8.14-34.11a11.45,11.45,0,0,0-1-2.32l-.19.19c0,13.18-6.4,18.8-8.92,27.71a42.4,42.4,0,0,0-1.16,5m.19-27.13-1.16-3.1-.77-1.74a26.83,26.83,0,0,0-8-8.91,38,38,0,0,1-7-7.76h-.58c.2.58,1.94,6.4,3.1,9.11a55,55,0,0,0,7,10.46l.58.78A51.61,51.61,0,0,1,199.39,102a.19.19,0,0,0,.19.2l3.3-10.08a98.81,98.81,0,0,0,2.9-10.85c1.17-8.72-1.55-19.77-6.58-26a.66.66,0,0,0-.2.39l.2.77.38,1.16a35.94,35.94,0,0,1,.2,14.35,55.38,55.38,0,0,0-1,11.43c0,.58.39,5.43.39,5.62s-.2,0-.39,0m-15.7-49a15,15,0,0,1,3.68,5.43c1.36,3.29,1.75,8.14,2.72,11.82l1.74,6.39c0,.2-.19.39-.39.2a37.82,37.82,0,0,0-10.46-8.72,25.06,25.06,0,0,1-6.78-6l-1-1.36a.27.27,0,0,0-.39,0v.58a24.83,24.83,0,0,0,6,11.63c2.52,2.33,5.23,4.46,7.75,6.59a85.06,85.06,0,0,1,9.3,9.3s.19.2.19,0v-3.1l.2-9.3v-3.1A25.37,25.37,0,0,0,194,51a21.59,21.59,0,0,0-10.07-11.05c-.2-.19-.59-.19-1-.38a.59.59,0,0,0,.19.38m-20-9.11a51.2,51.2,0,0,1,7.17,8.53,40.1,40.1,0,0,0,6.78,8.33c1.75,1.75,7,5.82,8.34,7-.2-1.55-2.72-12.6-9.5-18a34.55,34.55,0,0,0-13.37-6.59v.39l.58.38m-108.52,151A62.49,62.49,0,0,0,68,179.27l10.47-2.52h.19a.19.19,0,0,0-.19-.19h-.19a37.54,37.54,0,0,1-14.35-7.37l-9.1-8.71L46.5,153.3v.39c.77,1.17,3.68,7.56,5.42,11.05A19.79,19.79,0,0,0,62.77,175.2c.2.2,0,.2-.39.2A154.22,154.22,0,0,0,45.72,174a47.23,47.23,0,0,1-12.79-1.94,27.24,27.24,0,0,1-8.14-4.26H24.4a33.76,33.76,0,0,0,15.5,12,42.38,42.38,0,0,0,14.73,1.94m-4.45-11.43c.38,0,.58.19,1.16.19v-.19L51,170a30.81,30.81,0,0,1-7.17-11.82l-3.49-9.88A56.46,56.46,0,0,0,31,131.6V132a72.05,72.05,0,0,1,2.13,13c1.75,12,7.56,17.83,7.56,18s0,.39-.19.2l-.78-.58a47.87,47.87,0,0,0-12.21-7.17A61.76,61.76,0,0,1,17.62,150a40.83,40.83,0,0,1-9.69-8.53H7.74a47.15,47.15,0,0,0,1.93,4.65,40.23,40.23,0,0,0,12.41,14.35,35.19,35.19,0,0,0,17.05,7.17c3.68,1,7.37,1.93,11,2.71M19,145.17l11.62,7.16a.65.65,0,0,0,.2-.38c-2.52-5-2.91-10.47-3.3-15.89-.38-4.85.39-10.66.2-15.31a57.39,57.39,0,0,0-2.33-11.43c0-.2-.19-.39-.19-.59l-.2.2c-.38,5.62-2.52,10.66-3.29,15.31a39.53,39.53,0,0,0,1.16,16.47c.19.19-.19.39-.19.19A115.14,115.14,0,0,0,9.87,126.37,33.74,33.74,0,0,1,1,112.61a.7.7,0,0,0-.39-.2c-.2,0,0,.39,0,.78A35.2,35.2,0,0,0,7,133.54a42.9,42.9,0,0,0,12,11.63m-2.14-17.06c.2-.19.2-.19.2-.58a30.12,30.12,0,0,1,2.13-14.34A113,113,0,0,0,25,90.33c0-1,.2-2.72.2-3.1-.2,0-.2,0-.2.19a72.21,72.21,0,0,1-5.23,9.3c-3.1,4.26-6.2,8.91-6.59,14.34a19,19,0,0,0,0,4.65.19.19,0,0,1-.19.2v-.2l-1.36-4.65C8.9,102.15,2.7,96.53,2.7,83.35l-.19-.19c-.39.77-.59,1.55-1,2.32-5.62,18.22,5.81,31.4,8.13,34.11s5.43,6,7.17,8.52M8.71,91.87,12,102a.19.19,0,0,0,.2-.19,57.35,57.35,0,0,1,7.55-14.53l.58-.78a61.67,61.67,0,0,0,7-10.46c1.16-2.72,2.91-8.53,3.1-9.11h-.58a37.91,37.91,0,0,1-7,7.75,26.46,26.46,0,0,0-8.14,9.11c-.19.58-.58,1.16-.77,1.74l-1.16,3.3s-.2.38-.2,0,.39-4.85.39-5.62a56.27,56.27,0,0,0-1.16-11.44A35.66,35.66,0,0,1,12,57.38a2.8,2.8,0,0,1,.39-1.16c0-.2.19-.58.19-.78s0-.19-.19-.38c-5,6.2-7.95,17.44-6.78,26,1,3.68,1.93,7.36,3.1,10.84m7-28.29.2,9.31v2.9h.19a69.3,69.3,0,0,1,9.11-9.49l7.75-6.59a24.88,24.88,0,0,0,6-11.63V47.5h-.2l-1,1.36a24.5,24.5,0,0,1-6.58,6c-4.66,2.91-7.76,5-10.47,8.72-.19.2-.39.2-.19-.19L22.27,57c1-3.68,1.36-8.52,2.71-11.82a17,17,0,0,1,3.69-5.42v-.39c-.39,0-.59.2-1,.39A22.18,22.18,0,0,0,17.43,51a21.42,21.42,0,0,0-1.75,9.3v3.29M26,54.48h0l8.53-7a47.28,47.28,0,0,0,6.78-8.33,43.18,43.18,0,0,1,7.17-8.53l.58-.58v-.39a32.16,32.16,0,0,0-13.37,6.59C28.47,41.88,26.15,52.93,26,54.48" transform="translate(0 0)"/><polygon class="cls-5" points="263.18 34.04 281.79 86.59 300.3 34.04 319.91 34.04 319.91 106.49 304.93 106.49 304.93 86.69 306.42 52.5 286.87 106.49 276.61 106.49 257.11 52.55 258.6 86.69 258.6 106.49 243.67 106.49 243.67 34.04 263.18 34.04"/><path class="cls-5" d="M327.25,79.07a31.89,31.89,0,0,1,3.09-14.28,22.5,22.5,0,0,1,8.88-9.7,25.89,25.89,0,0,1,13.46-3.44q10.89,0,17.79,6.67t7.69,18.11l.09,3.69q0,12.39-6.91,19.88t-18.56,7.49q-11.64,0-18.59-7.47t-6.94-20.3Zm14.38,1q0,7.68,2.89,11.74a10.37,10.37,0,0,0,16.42,0q2.93-4,2.93-12.83,0-7.53-2.93-11.66a9.54,9.54,0,0,0-8.26-4.14,9.38,9.38,0,0,0-8.16,4.11q-2.89,4.11-2.89,12.73" transform="translate(0 0)"/><path class="cls-5" d="M382.09,79.17q0-12.58,5.65-20.05t15.45-7.47a16.49,16.49,0,0,1,13,5.88V30.06h14.43v76.43h-13l-.7-5.72a16.94,16.94,0,0,1-13.83,6.72A18.29,18.29,0,0,1,387.84,100q-5.74-7.48-5.75-20.83m14.38,1.07q0,7.58,2.64,11.61a8.59,8.59,0,0,0,7.66,4q6.68,0,9.41-5.63V69q-2.69-5.62-9.31-5.63-10.39,0-10.4,16.89" transform="translate(0 0)"/><path class="cls-5" d="M463.56,107.49q-11.85,0-19.28-7.27t-7.44-19.36V79.47A32.56,32.56,0,0,1,440,65a23,23,0,0,1,8.88-9.85A25,25,0,0,1,462,51.65q11,0,17.39,7t6.34,19.76v5.87H451.42a13.41,13.41,0,0,0,4.2,8.46,12.73,12.73,0,0,0,8.89,3.18q8.3,0,13-6l7.07,7.91a21.58,21.58,0,0,1-8.76,7.14,28.7,28.7,0,0,1-12.24,2.57m-1.64-44.24a9,9,0,0,0-6.95,2.9q-2.66,2.89-3.4,8.3h20V73.29c-.06-3.19-.93-5.67-2.59-7.42a9.26,9.26,0,0,0-7.06-2.62" transform="translate(0 0)"/><rect class="cls-5" x="492.05" y="30.06" width="14.43" height="76.43"/><path class="cls-5" d="M596.83,34V81.76q0,11.89-7.43,18.81t-20.33,6.92q-12.69,0-20.16-6.72T541.3,82.31V34h14.93V81.86q0,7.11,3.41,10.37c2.27,2.17,5.41,3.27,9.43,3.27q12.58,0,12.79-13.24V34Z" transform="translate(0 0)"/><polygon class="cls-5" points="666.14 106.49 651.21 106.49 622.15 58.82 622.15 106.49 607.22 106.49 607.22 34.04 622.15 34.04 651.26 81.81 651.26 34.04 666.14 34.04 666.14 106.49"/><path class="cls-5" d="M298.51,120.66v47.72q0,11.9-7.44,18.81t-20.33,6.92q-12.69,0-20.15-6.72T243,168.93V120.66H257.9v47.82q0,7.13,3.41,10.37t9.43,3.27q12.58,0,12.79-13.24V120.66Z" transform="translate(0 0)"/><path class="cls-5" d="M337.74,152.76a38.47,38.47,0,0,0-5.18-.4q-8.16,0-10.7,5.52v35.23H307.48V139.27h13.59l.39,6.42q4.34-7.41,12-7.41a14.73,14.73,0,0,1,4.47.65Z" transform="translate(0 0)"/><path class="cls-5" d="M373.2,193.11a16,16,0,0,1-1.44-4.83,17.39,17.39,0,0,1-13.59,5.83,19.14,19.14,0,0,1-13.11-4.58,14.74,14.74,0,0,1-5.2-11.54q0-8.56,6.35-13.14t18.33-4.63h6.62v-3.08a8.94,8.94,0,0,0-1.91-6q-1.92-2.24-6.05-2.23a8.54,8.54,0,0,0-5.7,1.74,5.92,5.92,0,0,0-2.06,4.77H341.06a14.45,14.45,0,0,1,2.88-8.65,19.12,19.12,0,0,1,8.16-6.25A29.77,29.77,0,0,1,364,138.28q9.94,0,15.79,5t5.85,14.06v23.33q0,7.67,2.14,11.6v.84Zm-11.89-10a12.33,12.33,0,0,0,5.87-1.42,9.27,9.27,0,0,0,4-3.8v-9.26h-5.37q-10.8,0-11.5,7.47l-.05.84a5.74,5.74,0,0,0,1.9,4.43,7.32,7.32,0,0,0,5.17,1.74" transform="translate(0 0)"/><rect class="cls-5" x="394.24" y="116.68" width="14.43" height="76.43"/><path class="cls-5" d="M446.36,178.23a4.62,4.62,0,0,0-2.61-4.15,30,30,0,0,0-8.39-2.71q-19.2-4-19.21-16.32a14.78,14.78,0,0,1,6-12q5.94-4.82,15.55-4.8,10.25,0,16.4,4.83a15.2,15.2,0,0,1,6.14,12.53H445.81a7,7,0,0,0-2-5.1q-2-2-6.22-2a8.62,8.62,0,0,0-5.62,1.64,5.17,5.17,0,0,0-2,4.18,4.44,4.44,0,0,0,2.26,3.86c1.51,1,4.05,1.82,7.64,2.53a63,63,0,0,1,9.06,2.42q11.39,4.17,11.39,14.48A14.06,14.06,0,0,1,454,189.56q-6.31,4.55-16.32,4.55a28.48,28.48,0,0,1-12-2.42,20.08,20.08,0,0,1-8.23-6.61,15.41,15.41,0,0,1-3-9.09H428.1a7.5,7.5,0,0,0,2.83,5.88,11.25,11.25,0,0,0,7.07,2c2.75,0,4.83-.53,6.24-1.57a4.87,4.87,0,0,0,2.12-4.11" transform="translate(0 0)"/><polygon class="cls-5" points="486.3 171.52 481.12 176.69 481.12 193.11 466.74 193.11 466.74 116.68 481.12 116.68 481.12 159.03 483.91 155.44 497.69 139.27 514.96 139.27 495.5 161.72 516.65 193.11 500.13 193.11 486.3 171.52"/></g></g></g></g></g></svg>