<svg xmlns="http://www.w3.org/2000/svg" xmlns:xlink="http://www.w3.org/1999/xlink" viewBox="0 0 311.39 295.45"><defs><style>.cls-1{fill:none;}.cls-2{clip-path:url(#clip-path);}.cls-3{fill:#019cd9;}</style><clipPath id="clip-path" transform="translate(0 0)"><rect class="cls-1" width="311.39" height="295.45"/></clipPath></defs><title>Artwork 4</title><g id="Layer_2" data-name="Layer 2"><g id="Layer_1-2" data-name="Layer 1"><g id="Artwork_4" data-name="Artwork 4"><g class="cls-2"><polygon class="cls-3" points="153.18 228.44 107.86 214.79 107.86 21.32 153.18 40.23 153.18 228.44"/><g class="cls-2"><path class="cls-3" d="M264.59,140.16H203.53V0L158.21,39.28v142c-.83.06-1.67.09-2.51.09a38.87,38.87,0,0,1-38.83-38.82c0-.79,0-1.57.08-2.35H46.8c0,.78,0,1.56,0,2.35a108.93,108.93,0,0,0,217.85,0c0-.79,0-1.57,0-2.35M221,144.85h17.07a82.36,82.36,0,0,1-34.53,64.7V187A65.06,65.06,0,0,0,221,144.85m-4.74,0a60.39,60.39,0,0,1-12.72,34.83V144.85Zm-104.06,0a43.57,43.57,0,0,0,43.51,41.22c.84,0,1.68,0,2.51-.07v17.05c-.83,0-1.67.07-2.51.07a60.68,60.68,0,0,1-60.56-58.27Zm-21.79,0a65.35,65.35,0,0,0,65.3,63c.84,0,1.68,0,2.51-.06v17.06c-.83,0-1.67,0-2.51,0a82.5,82.5,0,0,1-82.37-80.05Zm65.3,101.84A104.3,104.3,0,0,1,51.55,144.85h17a87.14,87.14,0,0,0,174.21,0h17A104.29,104.29,0,0,1,155.7,246.69" transform="translate(0 0)"/><path class="cls-3" d="M246.82,272a40.51,40.51,0,0,1-26.57,3.14,92.54,92.54,0,0,1-17.71-6L190,264a61.48,61.48,0,0,0-33.71-.86h-1.14a56.61,56.61,0,0,0-33.72.86c-4.28,1.43-8.29,3.43-12.57,5.14a101,101,0,0,1-17.71,6.29,40.73,40.73,0,0,1-26.57-3.15l-1.15-.57c-.28,0-.28,0-.28.29a43.29,43.29,0,0,0,20,11.71,41.84,41.84,0,0,0,15.71,1.15,52.06,52.06,0,0,0,22.29-8.58l12-8a20.35,20.35,0,0,1,15.14-2.85c2.86.28.57,1.71.28,2A113.47,113.47,0,0,0,128.26,280c-4.29,3.14-12,10.57-12,10.57l5.71,4.86,6.29-6.86a113.44,113.44,0,0,1,26.28-20.29,2.14,2.14,0,0,1,2.57,0,113.5,113.5,0,0,1,26.29,20.29l6.28,6.86,5.72-4.86L183.4,280a113.55,113.55,0,0,0-20.29-12.57c-.57-.29-2.57-1.72.29-2a20.36,20.36,0,0,1,15.14,2.85l12,8a52,52,0,0,0,22.28,8.58,41.87,41.87,0,0,0,15.72-1.15,48.71,48.71,0,0,0,20-11.71,1,1,0,0,0-.58-.29l-1.14.29m28-24.86a40.13,40.13,0,0,1-12,6.29A70.26,70.26,0,0,1,244,256.31a236.23,236.23,0,0,0-24.57,2c-.57,0-.86,0-.57-.28a30.16,30.16,0,0,0,16-15.43l8-16.28v-.58c-.57.29-8.57,7.15-12.28,10.58l-13.43,13.14a52.3,52.3,0,0,1-20.86,10.86H196l-.29.28,15.43,3.71A96.88,96.88,0,0,0,231.39,268a47.62,47.62,0,0,0,44-20.57c0-.29-.28-.29-.57-.29M300,208.88a60.15,60.15,0,0,1-14.28,12.57,90.53,90.53,0,0,1-14.57,8,70.88,70.88,0,0,0-18,10.57l-1.14.86c-.29,0-.29,0-.29-.29s8.57-8.85,11.14-26.85a107,107,0,0,1,2.86-19.15V194A83.21,83.21,0,0,0,252,218.59l-5.15,14.57a42.09,42.09,0,0,1-10.57,17.43l-.57.57v.29c.57,0,1.14-.29,1.72-.29L254,247.73a57.69,57.69,0,0,0,25.14-10.57,58.39,58.39,0,0,0,18-21.14,52.34,52.34,0,0,0,2.85-7.14c.57-.29.29-.29,0,0M310.82,166a50.84,50.84,0,0,1-13.14,20.58A190.94,190.94,0,0,0,278.82,208c0,.29-.57,0-.28-.28a57.9,57.9,0,0,0,1.71-24.29c-1.14-6.85-4-14.28-4.86-22.57l-.28-.28c0,.28-.29.57-.29.85A82.26,82.26,0,0,0,271.39,178c-.28,6.86.86,15.72.29,22.57-.57,8-1.14,16.29-4.86,23.43v.57L284,214a64.08,64.08,0,0,0,18-17.14,51.18,51.18,0,0,0,9.43-30v-1.14a1,1,0,0,0-.57.28" transform="translate(0 0)"/><path class="cls-3" d="M292.54,170.59h0a54.13,54.13,0,0,0-.29-6.85c-.57-8-5.43-14.57-9.71-21.43a106.43,106.43,0,0,1-7.72-13.71,1,1,0,0,0-.57-.29,29.18,29.18,0,0,0,.29,4.57,139.09,139.09,0,0,0,8.57,33.72A48.58,48.58,0,0,1,286,187.74c0,.57,0,.57.29.85,2.57-3.71,7.71-8.85,10.86-12.85s20.28-23.43,12-50.28a17,17,0,0,0-1.42-3.43l-.29.28c0,19.43-9.43,27.71-13.14,40.86a61.64,61.64,0,0,0-1.71,7.42m.28-40L291.11,126,290,123.45a39.77,39.77,0,0,0-11.72-13.14A55.35,55.35,0,0,1,268,98.88h-.86c.28.86,2.86,9.43,4.57,13.43A80.65,80.65,0,0,0,282,127.74l.86,1.14A76.5,76.5,0,0,1,294,150.31a.28.28,0,0,0,.29.29l4.86-14.86a146.28,146.28,0,0,0,4.28-16c1.72-12.86-2.28-29.14-9.71-38.28a1,1,0,0,0-.29.57l.29,1.14.57,1.71a52.69,52.69,0,0,1,.28,21.15,82.41,82.41,0,0,0-1.42,16.85c0,.86.57,8,.57,8.29s-.29,0-.57,0M270,58.89a22,22,0,0,1,5.42,8c2,4.85,2.57,12,4,17.43L282,93.74c0,.29-.28.57-.57.29A56.07,56.07,0,0,0,266,81.17a36.81,36.81,0,0,1-10-8.86l-1.43-2a.39.39,0,0,0-.57,0v.85a36.5,36.5,0,0,0,8.85,17.14c3.71,3.43,7.72,6.57,11.43,9.72A123.25,123.25,0,0,1,288,111.74s.29.29.29,0v-4.57l.29-13.71V88.88A37.6,37.6,0,0,0,286,75.17a31.82,31.82,0,0,0-14.85-16.28c-.29-.29-.86-.29-1.43-.58a.9.9,0,0,0,.29.58M240.54,45.46A74.9,74.9,0,0,1,251.11,58a59.17,59.17,0,0,0,10,12.29c2.57,2.57,10.29,8.57,12.28,10.28-.28-2.29-4-18.57-14-26.57a50.93,50.93,0,0,0-19.71-9.71v.57l.86.57M80.55,268a91.58,91.58,0,0,0,19.71-3.72l15.43-3.71H116a.27.27,0,0,0-.28-.28h-.29a55.49,55.49,0,0,1-21.14-10.86L80.83,236.59,68.55,226v.57c1.14,1.72,5.43,11.15,8,16.29a29.13,29.13,0,0,0,16,15.42c.28.29,0,.29-.58.29a232.57,232.57,0,0,0-24.57-2,69.86,69.86,0,0,1-18.85-2.86,40.22,40.22,0,0,1-12-6.28H36a49.83,49.83,0,0,0,22.85,17.71A62.35,62.35,0,0,0,80.55,268M74,251.16c.57,0,.85.29,1.71.29v-.29l-.57-.57a45.36,45.36,0,0,1-10.57-17.43L59.4,218.59A83.33,83.33,0,0,0,45.69,194v.57a107.33,107.33,0,0,1,3.14,19.15C51.41,231.45,60,240,60,240.31s0,.57-.29.28l-1.14-.86a71.47,71.47,0,0,0-18-10.57,89,89,0,0,1-14.57-8,60.17,60.17,0,0,1-14.29-12.57h-.28a68.73,68.73,0,0,0,2.85,6.86,59.17,59.17,0,0,0,18.29,21.14,51.67,51.67,0,0,0,25.14,10.57c5.43,1.43,10.86,2.86,16.29,4M28,214l17.14,10.57a1,1,0,0,0,.29-.57c-3.72-7.43-4.29-15.43-4.86-23.43-.57-7.14.57-15.71.28-22.57a83.56,83.56,0,0,0-3.43-16.85c0-.29-.28-.57-.28-.86l-.28.29c-.58,8.28-3.72,15.71-4.86,22.57a58.36,58.36,0,0,0,1.71,24.28c.29.29-.28.57-.28.29a168.45,168.45,0,0,0-18.86-21.43A49.79,49.79,0,0,1,1.41,166a1,1,0,0,0-.57-.28c-.29,0,0,.57,0,1.14a51.83,51.83,0,0,0,9.43,30A63.25,63.25,0,0,0,28,214m-3.15-25.14c.29-.29.29-.29.29-.86a44.57,44.57,0,0,1,3.14-21.14,167.17,167.17,0,0,0,8.58-33.71c0-1.43.28-4,.28-4.57-.28,0-.28,0-.28.28a106.56,106.56,0,0,1-7.72,13.72c-4.57,6.28-9.14,13.14-9.71,21.14a27.08,27.08,0,0,0,0,6.85.28.28,0,0,1-.29.29v-.29l-2-6.85C13.12,150.6,4,142.31,4,122.88l-.29-.28c-.57,1.14-.85,2.28-1.43,3.43-8.28,26.85,8.58,46.28,12,50.28s8,8.86,10.57,12.57m-12-53.43,4.85,14.86A.28.28,0,0,0,18,150,84.9,84.9,0,0,1,29.12,128.6l.86-1.15A90.76,90.76,0,0,0,40.26,112c1.71-4,4.29-12.57,4.57-13.43H44A55.68,55.68,0,0,1,33.69,110a38.88,38.88,0,0,0-12,13.42c-.28.86-.86,1.72-1.14,2.58l-1.71,4.85s-.29.57-.29,0,.57-7.14.57-8.28a82.49,82.49,0,0,0-1.71-16.86,52.57,52.57,0,0,1,.28-21.14,4.12,4.12,0,0,1,.57-1.71c0-.29.29-.86.29-1.15s0-.28-.29-.57c-7.42,9.14-11.71,25.71-10,38.29,1.42,5.42,2.85,10.85,4.57,16M23.12,93.74l.29,13.71v4.29h.28a104,104,0,0,1,13.43-14L48.55,88a36.79,36.79,0,0,0,8.86-17.14V70h-.29l-1.43,2A36.06,36.06,0,0,1,46,80.89c-6.86,4.28-11.43,7.42-15.43,12.85-.29.29-.57.29-.29-.28L32.84,84c1.42-5.43,2-12.57,4-17.43a24.87,24.87,0,0,1,5.42-8V58c-.57,0-.85.28-1.43.57A32.84,32.84,0,0,0,25.69,75.17a31.88,31.88,0,0,0-2.57,13.71v4.86M38.26,80.31h0L50.84,70a69.34,69.34,0,0,0,10-12.29A63.6,63.6,0,0,1,71.4,45.17l.86-.85v-.58a47.33,47.33,0,0,0-19.71,9.72C42,61.75,38.55,78,38.26,80.31" transform="translate(0 0)"/></g></g></g></g></g></svg>