<svg xmlns="http://www.w3.org/2000/svg" xmlns:xlink="http://www.w3.org/1999/xlink" viewBox="0 0 347.76 298.45"><defs><style>.cls-1{fill:none;}.cls-2{clip-path:url(#clip-path);}.cls-3{fill:#029dd9;}.cls-4{fill:#1d1d1b;}</style><clipPath id="clip-path" transform="translate(0 0)"><rect class="cls-1" width="347.76" height="298.45"/></clipPath></defs><title>Artwork 3</title><g id="Layer_2" data-name="Layer 2"><g id="Layer_1-2" data-name="Layer 1"><g id="Artwork_3" data-name="Artwork 3"><g class="cls-2"><polygon class="cls-3" points="166.72 170.62 132.87 160.43 132.87 15.92 166.72 30.05 166.72 170.62"/><g class="cls-2"><path class="cls-3" d="M249.93,104.68H204.32V0L170.48,29.34v106c-.63,0-1.25.07-1.88.07a29,29,0,0,1-29-29c0-.59,0-1.18.06-1.76H87.26c0,.59,0,1.17,0,1.76a81.36,81.36,0,0,0,162.71,0c0-.59,0-1.17,0-1.76m-32.57,3.51h12.75a61.54,61.54,0,0,1-25.79,48.33V139.68a48.64,48.64,0,0,0,13-31.49m-3.54,0a45,45,0,0,1-9.5,26v-26Zm-77.72,0A32.54,32.54,0,0,0,168.6,139c.63,0,1.25,0,1.88-.06v12.74c-.63,0-1.25.05-1.88.05a45.32,45.32,0,0,1-45.23-43.52Zm-16.27,0a48.8,48.8,0,0,0,48.77,47.06c.63,0,1.25,0,1.88-.05v12.74c-.63,0-1.25,0-1.88,0a61.61,61.61,0,0,1-61.52-59.79Zm48.77,76.06a77.9,77.9,0,0,1-77.79-76.06h12.73a65.08,65.08,0,0,0,130.11,0h12.74a77.91,77.91,0,0,1-77.79,76.06" transform="translate(0 0)"/><path class="cls-3" d="M236.66,203.17a30.35,30.35,0,0,1-19.85,2.35A68.71,68.71,0,0,1,203.58,201l-9.39-3.84a45.93,45.93,0,0,0-25.18-.64h-.85a42.31,42.31,0,0,0-25.18.64c-3.2,1.07-6.19,2.57-9.39,3.84a74.49,74.49,0,0,1-13.23,4.7,30.36,30.36,0,0,1-19.84-2.35l-.85-.42c-.22,0-.22,0-.22.21a32.38,32.38,0,0,0,14.94,8.75,31.1,31.1,0,0,0,11.73.85,38.76,38.76,0,0,0,16.65-6.4l9-6A15.25,15.25,0,0,1,163,198.26c2.13.21.43,1.28.21,1.5a85,85,0,0,0-15.15,9.39c-3.2,2.34-9,7.89-9,7.89l4.27,3.63,4.69-5.13a84.9,84.9,0,0,1,19.64-15.15,1.62,1.62,0,0,1,1.92,0,85.27,85.27,0,0,1,19.63,15.15l4.69,5.13,4.27-3.63-9-7.89a84.69,84.69,0,0,0-15.16-9.39c-.42-.22-1.92-1.29.22-1.5a15.24,15.24,0,0,1,11.31,2.13l9,6a38.76,38.76,0,0,0,16.65,6.4,31.1,31.1,0,0,0,11.73-.85,36.45,36.45,0,0,0,14.94-8.75.74.74,0,0,0-.43-.21l-.85.21m20.91-18.56a30.16,30.16,0,0,1-9,4.69,52.37,52.37,0,0,1-14.09,2.13,177.48,177.48,0,0,0-18.35,1.5c-.42,0-.64,0-.42-.22a22.55,22.55,0,0,0,11.95-11.52l6-12.16v-.43c-.43.21-6.4,5.33-9.17,7.89l-10,9.82a38.94,38.94,0,0,1-15.58,8.11h-.21l-.22.21L210,197.41a72.48,72.48,0,0,0,15.15,2.77A35.56,35.56,0,0,0,258,184.82c0-.21-.22-.21-.43-.21M276.35,156a45.07,45.07,0,0,1-10.67,9.39,66.65,66.65,0,0,1-10.88,6,53.45,53.45,0,0,0-13.45,7.9l-.85.64c-.22,0-.22,0-.22-.21s6.41-6.62,8.33-20.06a79.2,79.2,0,0,1,2.13-14.3v-.42a62.13,62.13,0,0,0-10.24,18.35l-3.84,10.88a31.48,31.48,0,0,1-7.9,13l-.42.43v.21c.42,0,.85-.21,1.28-.21L242,185a44.33,44.33,0,0,0,32.22-23.68,39.12,39.12,0,0,0,2.14-5.34c.42-.21.21-.21,0,0m8.11-32a38,38,0,0,1-9.82,15.37,141,141,0,0,0-14.08,16c0,.21-.43,0-.22-.21A43.15,43.15,0,0,0,261.63,137c-.86-5.12-3-10.67-3.63-16.86l-.22-.21c0,.21-.21.43-.21.64A61,61,0,0,0,255,133c-.21,5.12.64,11.74.21,16.86-.42,6-.85,12.17-3.63,17.5v.43l12.81-7.9a48.08,48.08,0,0,0,13.44-12.8,38.23,38.23,0,0,0,7-22.41v-.85a.73.73,0,0,0-.42.21" transform="translate(0 0)"/><path class="cls-3" d="M270.8,127.41h0a41.59,41.59,0,0,0-.21-5.11c-.43-6-4.06-10.89-7.26-16a79.86,79.86,0,0,1-5.76-10.24.73.73,0,0,0-.43-.22,21.52,21.52,0,0,0,.22,3.42,103.62,103.62,0,0,0,6.4,25.18,36.32,36.32,0,0,1,2.13,15.79c0,.43,0,.43.22.64,1.92-2.77,5.76-6.62,8.11-9.6s15.15-17.5,9-37.56a13.94,13.94,0,0,0-1.07-2.56l-.21.21c0,14.52-7,20.7-9.82,30.52a47.14,47.14,0,0,0-1.28,5.54M271,97.54l-1.28-3.41-.85-1.92a29.62,29.62,0,0,0-8.75-9.82,41.34,41.34,0,0,1-7.68-8.53h-.64c.21.64,2.13,7,3.41,10a60.47,60.47,0,0,0,7.69,11.53l.64.85a57.4,57.4,0,0,1,8.32,16,.21.21,0,0,0,.21.22l3.63-11.1a108.1,108.1,0,0,0,3.2-11.95c1.28-9.6-1.71-21.76-7.26-28.59a.73.73,0,0,0-.21.42l.21.86.43,1.28a39.43,39.43,0,0,1,.22,15.79,61,61,0,0,0-1.08,12.59c0,.64.43,6,.43,6.19s-.21,0-.43,0M253.94,44A16.63,16.63,0,0,1,258,50c1.49,3.63,1.92,9,3,13l1.92,7c0,.21-.22.42-.43.21A41.91,41.91,0,0,0,251,60.63,27.75,27.75,0,0,1,243.49,54l-1.07-1.49a.29.29,0,0,0-.43,0v.64A27.42,27.42,0,0,0,248.61,66c2.77,2.56,5.76,4.91,8.53,7.26a92.61,92.61,0,0,1,10.25,10.24s.21.21.21,0V80l.21-10.24V66.39a28.07,28.07,0,0,0-1.92-10.24A23.79,23.79,0,0,0,254.8,44c-.22-.21-.64-.21-1.07-.42a.65.65,0,0,0,.21.42M232,34a56.23,56.23,0,0,1,7.9,9.39,43.8,43.8,0,0,0,7.47,9.18c1.92,1.92,7.68,6.4,9.17,7.68-.21-1.71-3-13.87-10.45-19.85a38.14,38.14,0,0,0-14.73-7.25v.43L232,34M112.47,200.18a69.29,69.29,0,0,0,14.72-2.77l11.52-2.77h.22a.22.22,0,0,0-.22-.22h-.21a41.2,41.2,0,0,1-15.79-8.11l-10-9.6-9.17-7.9v.43c.85,1.28,4,8.32,6,12.16a21.81,21.81,0,0,0,12,11.53c.21.21,0,.21-.43.21a175.07,175.07,0,0,0-18.35-1.5,52.36,52.36,0,0,1-14.08-2.13,30.16,30.16,0,0,1-9-4.69h-.43a37.27,37.27,0,0,0,17.07,13.23,46.8,46.8,0,0,0,16.22,2.13m-4.91-12.59c.43,0,.64.21,1.28.21v-.21l-.43-.42a33.82,33.82,0,0,1-7.89-13l-3.84-10.88a62.11,62.11,0,0,0-10.25-18.36v.43a79.33,79.33,0,0,1,2.35,14.3c1.92,13.23,8.32,19.63,8.32,19.84s0,.43-.21.22l-.85-.64a53.15,53.15,0,0,0-13.45-7.9,67.77,67.77,0,0,1-10.88-6A45.29,45.29,0,0,1,61,155.8h-.21A54,54,0,0,0,63,160.92a44.26,44.26,0,0,0,13.66,15.79A38.55,38.55,0,0,0,95.4,184.6c4,1.07,8.11,2.14,12.16,3M73.2,159.85,86,167.75a.78.78,0,0,0,.21-.43c-2.77-5.55-3.2-11.52-3.63-17.5-.43-5.33.43-11.73.22-16.86a62.52,62.52,0,0,0-2.57-12.59c0-.21-.21-.42-.21-.64l-.21.22c-.43,6.19-2.77,11.73-3.63,16.85a43.8,43.8,0,0,0,1.28,18.14c.22.22-.21.43-.21.22a126.53,126.53,0,0,0-14.08-16A37.28,37.28,0,0,1,53.36,124a.74.74,0,0,0-.43-.21c-.21,0,0,.43,0,.85a38.77,38.77,0,0,0,7,22.41,47.39,47.39,0,0,0,13.23,12.8m-2.34-18.78c.21-.21.21-.21.21-.64a33.11,33.11,0,0,1,2.35-15.79,124.3,124.3,0,0,0,6.4-25.18c0-1.06.21-3,.21-3.41-.21,0-.21,0-.21.21a79.86,79.86,0,0,1-5.76,10.24c-3.42,4.7-6.83,9.82-7.26,15.8a20.8,20.8,0,0,0,0,5.11.21.21,0,0,1-.21.22v-.22L65.1,122.3c-3-9.82-9.82-16-9.82-30.52l-.21-.21c-.43.85-.64,1.7-1.07,2.56-6.19,20.05,6.4,34.57,9,37.55s6,6.62,7.9,9.39m-9-39.9,3.63,11.09a.21.21,0,0,0,.22-.21,63.24,63.24,0,0,1,8.32-16l.64-.86a67.34,67.34,0,0,0,7.68-11.52c1.28-3,3.2-9.39,3.41-10h-.63a41.73,41.73,0,0,1-7.69,8.54,29,29,0,0,0-9,10c-.21.64-.64,1.28-.85,1.92l-1.28,3.62s-.22.43-.22,0,.43-5.33.43-6.18A61.67,61.67,0,0,0,65.31,79a39.37,39.37,0,0,1,.21-15.79A3.09,3.09,0,0,1,66,61.91c0-.22.21-.65.21-.86s0-.21-.21-.42c-5.55,6.83-8.75,19.2-7.47,28.59,1.07,4,2.14,8.11,3.41,12M69.58,70l.21,10.24v3.2H70A77.46,77.46,0,0,1,80,73l8.54-7.25A27.35,27.35,0,0,0,95.18,53V52.3H95L93.9,53.8a26.78,26.78,0,0,1-7.25,6.61C81.53,63.61,78.11,66,75.12,70c-.21.21-.42.21-.21-.22l1.92-7c1.07-4,1.49-9.39,3-13a18.48,18.48,0,0,1,4.05-6v-.43c-.42,0-.63.22-1.06.43A24.43,24.43,0,0,0,71.5,56.15a23.55,23.55,0,0,0-1.92,10.24V70M80.89,60h0l9.39-7.69a51.9,51.9,0,0,0,7.46-9.17,47.44,47.44,0,0,1,7.9-9.39l.64-.64v-.43a35.31,35.31,0,0,0-14.73,7.26C83.66,46.11,81.1,58.28,80.89,60" transform="translate(0 0)"/><polygon class="cls-4" points="12.82 250.17 25.05 284.71 37.22 250.17 50.11 250.17 50.11 297.79 40.26 297.79 40.26 284.77 41.24 262.31 28.39 297.79 21.65 297.79 8.83 262.34 9.81 284.77 9.81 297.79 0 297.79 0 250.17 12.82 250.17"/><path class="cls-4" d="M94.33,250.17v31.37q0,7.81-4.89,12.36t-13.36,4.55q-8.34,0-13.25-4.42t-5-12.13V250.17h9.82V281.6c0,3.12.74,5.39,2.24,6.82a8.59,8.59,0,0,0,6.2,2.15q8.27,0,8.4-8.71V250.17Z" transform="translate(0 0)"/><polygon class="cls-4" points="140.72 297.8 130.91 297.8 111.81 266.46 111.81 297.8 102 297.8 102 250.17 111.81 250.17 130.94 281.57 130.94 250.17 140.72 250.17 140.72 297.8"/><path class="cls-4" d="M200.28,250.17v31.37q0,7.81-4.89,12.36T182,298.45q-8.34,0-13.25-4.42t-5-12.13V250.17h9.82V281.6c0,3.12.74,5.39,2.24,6.82a8.59,8.59,0,0,0,6.2,2.15q8.28,0,8.4-8.71V250.17Z" transform="translate(0 0)"/><path class="cls-4" d="M226.89,271.27a24.94,24.94,0,0,0-3.4-.27c-3.58,0-5.92,1.22-7,3.63v23.16H207V262.41h8.93l.26,4.21q2.85-4.87,7.88-4.87a9.74,9.74,0,0,1,3,.43Z" transform="translate(0 0)"/><path class="cls-4" d="M251,297.79a10.07,10.07,0,0,1-.95-3.17,11.45,11.45,0,0,1-8.93,3.83,12.6,12.6,0,0,1-8.62-3,9.69,9.69,0,0,1-3.42-7.59,10,10,0,0,1,4.17-8.63q4.17-3,12.05-3h4.36v-2a5.78,5.78,0,0,0-1.27-3.92,5,5,0,0,0-4-1.47,5.63,5.63,0,0,0-3.74,1.14,3.89,3.89,0,0,0-1.36,3.15h-9.45a9.53,9.53,0,0,1,1.89-5.7,12.61,12.61,0,0,1,5.37-4.1,19.38,19.38,0,0,1,7.78-1.49q6.54,0,10.39,3.28t3.84,9.25v15.34q0,5,1.41,7.62v.55Zm-7.82-6.57a8.15,8.15,0,0,0,3.86-.93,6.16,6.16,0,0,0,2.62-2.5V281.7h-3.54q-7.1,0-7.56,4.91l0,.55a3.77,3.77,0,0,0,1.25,2.91,4.8,4.8,0,0,0,3.4,1.15" transform="translate(0 0)"/><rect class="cls-4" x="265.66" y="247.55" width="9.48" height="50.24"/><path class="cls-4" d="M300.74,288a3.06,3.06,0,0,0-1.71-2.73,19.71,19.71,0,0,0-5.52-1.78q-12.61-2.64-12.62-10.73a9.73,9.73,0,0,1,3.91-7.87q3.9-3.15,10.22-3.15,6.74,0,10.78,3.17a10,10,0,0,1,4,8.24h-9.44a4.58,4.58,0,0,0-1.31-3.35,6.94,6.94,0,0,0-7.79-.24,3.4,3.4,0,0,0-1.31,2.74,2.92,2.92,0,0,0,1.49,2.54,15.43,15.43,0,0,0,5,1.67,39.39,39.39,0,0,1,5.95,1.59c5,1.82,7.49,5,7.49,9.51a9.24,9.24,0,0,1-4.15,7.84q-4.15,3-10.73,3a18.67,18.67,0,0,1-7.9-1.59,13.14,13.14,0,0,1-5.41-4.35,10.08,10.08,0,0,1-2-6h9a4.92,4.92,0,0,0,1.86,3.86,7.38,7.38,0,0,0,4.65,1.34,6.81,6.81,0,0,0,4.1-1,3.19,3.19,0,0,0,1.39-2.7" transform="translate(0 0)"/><polygon class="cls-4" points="327.81 283.6 324.4 287 324.4 297.79 314.96 297.79 314.96 247.55 324.4 247.55 324.4 275.39 326.24 273.04 335.3 262.4 346.65 262.4 333.86 277.16 347.76 297.79 336.9 297.79 327.81 283.6"/></g></g></g></g></g></svg>