<?xml version="1.0" encoding="utf-8"?>
<!-- Generator: Adobe Illustrator 24.1.0, SVG Export Plug-In . SVG Version: 6.00 Build 0)  -->
<svg version="1.1" id="Layer_1" xmlns="http://www.w3.org/2000/svg" xmlns:xlink="http://www.w3.org/1999/xlink" x="0px" y="0px"
	 viewBox="0 0 311.4 295.5" style="enable-background:new 0 0 311.4 295.5;" xml:space="preserve">
<style type="text/css">
	.st0{fill:#019CD9;}
</style>
<g>
	<polygon class="st0" points="153.2,228.4 107.9,214.8 107.9,21.3 153.2,40.2 	"/>
	<g>
		<path class="st0" d="M264.6,140.2h-61.1V0l-45.3,39.3v142c-0.8,0.1-1.7,0.1-2.5,0.1c-21.4,0-38.8-17.4-38.8-38.8
			c0-0.8,0-1.6,0.1-2.4H46.8c0,0.8,0,1.6,0,2.4c0.6,60.2,49.8,108.5,110,107.9c59.3-0.6,107.3-48.5,107.9-107.9
			C264.6,141.8,264.6,141,264.6,140.2 M221,144.9h17.1c-0.7,25.8-13.5,49.7-34.5,64.7V187C214.3,175.5,220.5,160.5,221,144.9
			 M216.3,144.9c-0.5,12.7-4.9,24.8-12.7,34.8v-34.8H216.3z M112.2,144.9c1.2,23.1,20.4,41.2,43.5,41.2c0.8,0,1.7,0,2.5-0.1v17.1
			c-0.8,0-1.7,0.1-2.5,0.1c-32.5,0-59.3-25.7-60.6-58.3H112.2z M90.4,144.9c1.3,35.2,30.1,63,65.3,63c0.8,0,1.7,0,2.5-0.1v17.1
			c-0.8,0-1.7,0-2.5,0c-44.6-0.1-81-35.5-82.4-80.1L90.4,144.9z M155.7,246.7c-56.6-0.1-102.8-45.3-104.2-101.8h17
			c1.4,48.1,41.5,86,89.6,84.6c46.2-1.3,83.3-38.4,84.6-84.6h17C258.4,201.4,212.3,246.6,155.7,246.7"/>
		<path class="st0" d="M246.8,272c-8.2,4-17.6,5.1-26.6,3.1c-6.1-1.4-12-3.4-17.7-6L190,264c-10.9-3.4-22.6-3.7-33.7-0.9h-1.1
			c-11.1-3.1-22.8-2.8-33.7,0.9c-4.3,1.4-8.3,3.4-12.6,5.1c-5.7,2.6-11.6,4.7-17.7,6.3c-9,2-18.3,0.9-26.6-3.1l-1.2-0.6
			c-0.3,0-0.3,0-0.3,0.3c5.5,5.6,12.4,9.7,20,11.7c5.1,1.4,10.4,1.8,15.7,1.1c8-1.1,15.6-4,22.3-8.6l12-8c4.5-2.9,9.9-3.9,15.1-2.9
			c2.9,0.3,0.6,1.7,0.3,2c-7.2,3.5-14,7.7-20.3,12.6c-4.3,3.1-12,10.6-12,10.6l5.7,4.9l6.3-6.9c7.7-8,16.6-14.9,26.3-20.3
			c0.8-0.6,1.8-0.6,2.6,0c9.7,5.4,18.6,12.3,26.3,20.3l6.3,6.9l5.7-4.9l-12-10.6c-6.3-4.9-13.1-9.1-20.3-12.6
			c-0.6-0.3-2.6-1.7,0.3-2c5.2-1.1,10.7,0,15.1,2.9l12,8c6.7,4.5,14.3,7.5,22.3,8.6c5.3,0.6,10.6,0.2,15.7-1.1
			c7.5-2.2,14.4-6.3,20-11.7c-0.2-0.2-0.4-0.3-0.6-0.3L246.8,272 M274.8,247.1c-3.6,2.8-7.7,4.9-12,6.3c-6.1,1.8-12.4,2.8-18.8,2.9
			c-8.2,0.2-16.4,0.9-24.6,2c-0.6,0-0.9,0-0.6-0.3c7.1-2.9,12.8-8.4,16-15.4l8-16.3v-0.6c-0.6,0.3-8.6,7.1-12.3,10.6l-13.4,13.1
			c-6,5.2-13.2,8.9-20.9,10.9H196l-0.3,0.3l15.4,3.7c6.6,1.9,13.4,3.2,20.2,3.7c17.3,1.7,34.2-6.2,44-20.6
			C275.4,247.1,275.1,247.1,274.8,247.1 M300,208.9c-4.1,4.9-8.9,9.2-14.3,12.6c-4.6,3.1-9.5,5.8-14.6,8c-6.5,2.6-12.6,6.2-18,10.6
			l-1.1,0.9c-0.3,0-0.3,0-0.3-0.3s8.6-8.9,11.1-26.9c0.4-6.5,1.3-12.9,2.9-19.1V194c-5.9,7.4-10.6,15.7-13.7,24.6l-5.1,14.6
			c-2,6.6-5.7,12.6-10.6,17.4l-0.6,0.6v0.3c0.6,0,1.1-0.3,1.7-0.3l16.6-3.4c9.1-1.5,17.7-5.1,25.1-10.6c7.6-5.5,13.8-12.7,18-21.1
			C298.3,213.7,299.2,211.3,300,208.9C300.6,208.6,300.3,208.6,300,208.9 M310.8,166c-2.6,7.8-7.2,14.9-13.1,20.6
			c-6.8,6.7-13.1,13.8-18.9,21.4c0,0.3-0.6,0-0.3-0.3c2.3-7.9,2.9-16.2,1.7-24.3c-1.1-6.9-4-14.3-4.9-22.6l-0.3-0.3
			c0,0.3-0.3,0.6-0.3,0.9c-1.7,5.4-2.9,10.9-3.4,16.6c-0.3,6.9,0.9,15.7,0.3,22.6c-0.6,8-1.1,16.3-4.9,23.4v0.6L284,214
			c7.1-4.5,13.2-10.3,18-17.1c6.2-8.8,9.5-19.3,9.4-30v-1.1C311.2,165.7,311,165.8,310.8,166"/>
		<path class="st0" d="M292.5,170.6L292.5,170.6c0-2.3,0-4.6-0.3-6.9c-0.6-8-5.4-14.6-9.7-21.4c-2.9-4.4-5.5-9-7.7-13.7
			c-0.2-0.2-0.4-0.3-0.6-0.3c0,1.5,0.1,3.1,0.3,4.6c1.4,11.6,4.3,22.9,8.6,33.7c2.5,6.7,3.5,14,2.9,21.1c0,0.6,0,0.6,0.3,0.9
			c2.6-3.7,7.7-8.9,10.9-12.9s20.3-23.4,12-50.3c-0.3-1.2-0.8-2.3-1.4-3.4l-0.3,0.3c0,19.4-9.4,27.7-13.1,40.9
			C293.6,165.6,293,168.1,292.5,170.6 M292.9,130.6l-1.8-4.6l-1.1-2.6c-2.9-5.2-6.9-9.7-11.7-13.1c-3.9-3.3-7.4-7.2-10.3-11.4h-0.9
			c0.3,0.9,2.9,9.4,4.6,13.4c2.8,5.5,6.3,10.7,10.3,15.4l0.9,1.1c4.8,6.5,8.6,13.7,11.1,21.4c0,0.2,0.1,0.3,0.3,0.3c0,0,0,0,0,0
			l4.9-14.9c1.7-5.2,3.2-10.6,4.3-16c1.7-12.9-2.3-29.1-9.7-38.3c-0.2,0.2-0.3,0.4-0.3,0.6l0.3,1.1l0.6,1.7c1.5,7,1.6,14.2,0.3,21.2
			c-1,5.6-1.5,11.2-1.4,16.8c0,0.9,0.6,8,0.6,8.3s-0.3,0-0.6,0 M270,58.9c2.4,2.2,4.2,5,5.4,8c2,4.8,2.6,12,4,17.4l2.6,9.4
			c0,0.3-0.3,0.6-0.6,0.3c-4.3-5.2-9.6-9.5-15.4-12.9c-3.8-2.3-7.2-5.3-10-8.9l-1.4-2c-0.1-0.2-0.4-0.2-0.6,0c0,0,0,0,0,0v0.8
			c1.4,6.4,4.4,12.3,8.9,17.1c3.7,3.4,7.7,6.6,11.4,9.7c4.9,4.2,9.5,8.8,13.7,13.7c0,0,0.3,0.3,0.3,0v-4.6l0.3-13.7v-4.6
			c0-4.7-0.9-9.3-2.6-13.7c-2.9-7-8.1-12.8-14.9-16.3c-0.3-0.3-0.9-0.3-1.4-0.6C269.7,58.5,269.8,58.7,270,58.9 M240.5,45.5
			c4,3.8,7.5,8,10.6,12.5c2.8,4.5,6.1,8.7,10,12.3c2.6,2.6,10.3,8.6,12.3,10.3c-0.3-2.3-4-18.6-14-26.6c-5.8-4.6-12.5-7.9-19.7-9.7
			v0.6L240.5,45.5 M80.6,268c6.7-0.5,13.3-1.8,19.7-3.7l15.4-3.7h0.3c0-0.1-0.1-0.3-0.3-0.3c0,0,0,0,0,0h-0.3
			c-7.7-2.1-15-5.8-21.1-10.9l-13.5-12.8L68.6,226v0.6c1.1,1.7,5.4,11.1,8,16.3c3.1,7.1,8.8,12.6,16,15.4c0.3,0.3,0,0.3-0.6,0.3
			c-8.1-1.1-16.4-1.8-24.6-2c-6.4-0.1-12.7-1-18.8-2.9c-4.3-1.4-8.4-3.5-12-6.3H36c5.7,8,13.7,14.2,22.8,17.7
			C65.9,267.4,73.2,268.3,80.6,268 M74,251.2c0.6,0,0.8,0.3,1.7,0.3v-0.3l-0.6-0.6c-4.8-4.9-8.4-10.9-10.6-17.4l-5.2-14.6
			c-3.1-8.9-7.8-17.2-13.7-24.6v0.6c1.6,6.3,2.7,12.7,3.1,19.1C51.4,231.4,60,240,60,240.3s0,0.6-0.3,0.3l-1.1-0.9
			c-5.5-4.4-11.5-7.9-18-10.6c-5.1-2.2-10-4.9-14.6-8c-5.4-3.4-10.2-7.6-14.3-12.6h-0.3c0.8,2.3,1.8,4.6,2.9,6.9
			c4.3,8.4,10.6,15.7,18.3,21.1c7.3,5.7,16,9.4,25.1,10.6C63.1,248.6,68.6,250,74,251.2 M28,214l17.1,10.6c0.2-0.2,0.3-0.4,0.3-0.6
			c-3.7-7.4-4.3-15.4-4.9-23.4c-0.6-7.1,0.6-15.7,0.3-22.6c-0.6-5.7-1.7-11.4-3.4-16.9c0-0.3-0.3-0.6-0.3-0.9l-0.3,0.3
			c-0.6,8.3-3.7,15.7-4.9,22.6c-1.1,8.1-0.6,16.4,1.7,24.3c0.3,0.3-0.3,0.6-0.3,0.3c-5.7-7.7-12-14.8-18.9-21.4
			c-6-5.6-10.5-12.5-13.2-20.3c-0.2-0.2-0.4-0.3-0.6-0.3c-0.3,0,0,0.6,0,1.1c0,10.7,3.3,21.2,9.4,30C15,203.7,21,209.5,28,214
			 M24.9,188.9c0.3-0.3,0.3-0.3,0.3-0.9c-0.7-7.2,0.4-14.5,3.1-21.1c4-10.9,6.9-22.2,8.6-33.7c0-1.4,0.3-4,0.3-4.6
			c-0.3,0-0.3,0-0.3,0.3c-2.2,4.8-4.8,9.3-7.7,13.7c-4.6,6.3-9.1,13.1-9.7,21.1c-0.3,2.3-0.3,4.6,0,6.9c0,0.2-0.1,0.3-0.3,0.3
			c0,0,0,0,0,0v-0.3l-2-6.9C13.1,150.6,4,142.3,4,122.9l-0.3-0.3c-0.6,1.1-0.8,2.3-1.4,3.4c-8.3,26.9,8.6,46.3,12,50.3
			S22.3,185.2,24.9,188.9 M12.9,135.5l4.9,14.9c0.2,0,0.3-0.1,0.3-0.3c0,0,0,0,0-0.1c2.7-7.6,6.4-14.8,11.1-21.4l0.9-1.2
			c3.9-4.8,7.4-10,10.3-15.5c1.7-4,4.3-12.6,4.6-13.4H44c-2.9,4.3-6.4,8.1-10.3,11.4c-5,3.5-9.1,8.1-12,13.4
			c-0.3,0.9-0.9,1.7-1.1,2.6l-1.7,4.9c0,0-0.3,0.6-0.3,0s0.6-7.1,0.6-8.3c0-5.7-0.6-11.3-1.7-16.9c-1.3-7-1.2-14.2,0.3-21.1
			c0.1-0.6,0.3-1.2,0.6-1.7c0-0.3,0.3-0.9,0.3-1.2s0-0.3-0.3-0.6c-7.4,9.1-11.7,25.7-10,38.3C9.7,124.9,11.1,130.3,12.9,135.5
			 M23.1,93.7l0.3,13.7v4.3h0.3c4-5.1,8.5-9.8,13.4-14L48.5,88c4.4-4.8,7.5-10.7,8.9-17.1V70h-0.3l-1.4,2c-2.7,3.5-5.9,6.5-9.7,8.9
			c-6.9,4.3-11.4,7.4-15.4,12.8C30.3,94,30,94,30.3,93.5l2.6-9.5c1.4-5.4,2-12.6,4-17.4c1.3-3,3.1-5.7,5.4-8V58
			c-0.6,0-0.8,0.3-1.4,0.6C34,62.2,28.6,68,25.7,75.2c-1.9,4.3-2.7,9-2.6,13.7V93.7 M38.3,80.3L38.3,80.3L50.8,70
			c3.8-3.7,7.1-7.8,10-12.3c3-4.6,6.5-8.8,10.6-12.5l0.9-0.8v-0.6c-7.2,1.6-14,5-19.7,9.7C42,61.8,38.5,78,38.3,80.3"/>
	</g>
</g>
</svg>
